<?xml version="1.0" encoding="UTF-8"?>
<svg width="1000px" height="1000px" viewBox="0 0 1000 1000" version="1.1" xmlns="http://www.w3.org/2000/svg" xmlns:xlink="http://www.w3.org/1999/xlink">
    <title>Slice 1</title>
    <g id="Page-1" stroke="none" stroke-width="1" fill="none" fill-rule="evenodd">
        <rect id="Rectangle" fill="#F0F0F0" x="0" y="0" width="1000" height="1000"></rect>
        <g id="4092564-about-mobile-ui-profile-ui-user-website_114033" transform="translate(165.000000, 131.000000)" fill="#CCCCCC" fill-rule="nonzero">
            <path d="M336,370 C444.247811,370 532,287.172679 532,185 C532,82.8273213 444.247811,0 336,0 C227.752189,0 140,82.8273213 140,185 C140,287.172679 227.752189,370 336,370 Z M336,52.8571429 C413.319865,52.8571429 476,112.019515 476,185 C476,257.980485 413.319865,317.142857 336,317.142857 C258.680135,317.142857 196,257.980485 196,185 C196,112.019515 258.680135,52.8571429 336,52.8571429 Z" id="Shape"></path>
            <path d="M363.458333,421 L307.541667,421 C137.691094,421 0,551.09859 0,711.583333 C0,726.172855 12.5173722,738 27.9583333,738 L643.041667,738 C658.482628,738 671,726.172855 671,711.583333 C671,551.09859 533.308906,421 363.458333,421 Z M57.5941667,685.166667 C71.8279287,564.876015 179.437693,473.890787 307.541667,473.833333 L363.458333,473.833333 C491.562307,473.890787 599.172071,564.876015 613.405833,685.166667 L57.5941667,685.166667 Z" id="Shape"></path>
        </g>
    </g>
</svg>