<svg fill="none" xmlns="http://www.w3.org/2000/svg" viewBox="0 0 177 111">
  <path d="M153.7 2.9H23.8C12.5 2.9 3.4 12 3.4 23.3v84.6h150.3V2.9Z" stroke="#009FDF" stroke-width="5" stroke-miterlimit="10" stroke-linecap="round" stroke-linejoin="round"/>
  <path d="M153.7 2.9c11.3 0 20.4 9.1 20.4 20.4h-20.4V2.9ZM3.4 40.8l75.1 40.3M153.7 40.8 78.5 81.1M113.8 75.3h27M113.8 85.3h27M113.8 95.3h27" stroke="#009FDF" stroke-width="5" stroke-miterlimit="10" stroke-linecap="round" stroke-linejoin="round"/>
  <path d="M51.5 51.8c3.2-.4 6.3-.9 9.5-1.3l33-4.2c.2 0 .4-.1.6-.2V23.8l-6.9-.9c-10.1-1.3-20.2-2.5-30.4-3.8-2.1-.3-4.2-.6-6.2-.9h54.6v33.5c-18 .1-36.1.1-54.2.1Z" fill="#009FDF"/>
  <path d="M54.9 24.2c1.8.1 3.5.3 5.4.4v12.6c0 2.7.5 3.6 2.2 3.6 1.9 0 2.6-1 2.6-3.6V25c1.5.1 2.8.2 4.3.3v12.4c-.1 6.3-6.1 9.9-11.8 7.2-1.7-.8-2.7-2.2-2.7-3.9-.1-5.6 0-11.1 0-16.8ZM81.6 30.5c-1.3-.1-2.5-.1-3.7-.2V26c4.2.4 8.3.7 12.5 1.1v3.6h-3.6v12.5c-1.8.1-3.4.3-5.2.4V30.5ZM71.3 44.4V31.6h5V44c-1.6.2-3.2.3-5 .4ZM76.4 30.2c-1.8-.1-3.4-.2-5-.2v-4.4c1.5.1 3 .2 4.4.3.2 0 .6.4.6.6v3.7Z" fill="#009FDF"/>
</svg>
