<svg
    xmlns="http://www.w3.org/2000/svg"
    width="50"
    height="40"
    viewBox="0 0 50 40"
  >
    <path
      d="M17.908 17.587c0 1.864-.198 3.368-1.632 4.706-1.282 1.199-2.846 1.617-4.412 1.755-1.365.118-3.151-.089-4.305-.896-1.584-1.142-1.888-2.83-1.888-4.982v-11.881l4.649.386v10.769c0 .575-.021 1.355.282 1.873.349.538 1.043.731 1.634.701.521-.025 1.172-.226 1.564-.629.586-.586.519-1.449.519-2.226v-10.155l3.588.296v10.283zm5.719-6.265l-4.306-.194v-3.705l4.306.361v3.538zm0 11.421l-4.306.352v-10.742l4.306.134v10.256zm8.582-.639l-4.344.363v-10.885l-3.13-.138v-3.568l10.541.875v3.15l-3.067-.134v10.337zm-30.209-20.577h46v27.604h-46l36.8-4.6v-18.4l-36.8-4.604z"
      fill="#eee"
    />
    <g fill="#eee">
      <path
        d="M7.206 37.813h-1.867v-.673c-.276.519-.732.778-1.368.778-.585 0-1.061-.229-1.425-.686-.364-.458-.546-1.123-.546-1.994 0-.815.183-1.462.549-1.941.366-.479.85-.719 1.452-.719.503 0 .917.191 1.243.574v-2.152h1.961v6.813zm-1.961-3.264c0-.456-.188-.684-.564-.684-.263 0-.436.145-.517.434-.082.29-.123.644-.123 1.063 0 .821.209 1.232.629 1.232.16 0 .295-.064.407-.194s.167-.328.167-.594v-1.257zM13.37 37.813h-1.896c-.046-.217-.07-.452-.07-.709-.359.542-.903.813-1.632.813-.599 0-1.047-.152-1.345-.459-.298-.307-.447-.657-.447-1.053 0-.536.244-.969.731-1.3.488-.332 1.352-.53 2.593-.597v-.115c0-.222-.051-.371-.152-.444-.102-.073-.25-.11-.447-.11-.459 0-.715.185-.769.554l-1.816-.168c.259-1.061 1.143-1.592 2.65-1.592.409 0 .785.041 1.128.122.343.082.614.21.813.382.2.173.333.356.402.549.068.192.103.564.103 1.113v2.027c0 .385.051.715.154.987zm-2.066-2.375c-.848.09-1.272.361-1.272.813 0 .307.168.459.504.459.213 0 .395-.063.544-.19.15-.127.225-.406.225-.838v-.244zM17.383 32.737v1.292h-1.013v1.872c0 .256.048.408.145.456.097.049.196.073.3.073.16 0 .349-.028.569-.085v1.417c-.393.077-.779.115-1.158.115-.613 0-1.062-.132-1.351-.395-.288-.263-.432-.682-.432-1.258l.005-.594v-1.6h-.758v-1.292h.758l.03-1.652 1.892-.03v1.682h1.013zM23.243 37.813h-1.896c-.047-.217-.07-.452-.07-.709-.359.542-.903.813-1.632.813-.599 0-1.047-.152-1.345-.459s-.447-.657-.447-1.053c0-.536.244-.969.731-1.3.487-.332 1.352-.53 2.593-.597v-.115c0-.222-.051-.371-.152-.444-.101-.073-.25-.11-.447-.11-.459 0-.715.185-.769.554l-1.817-.169c.26-1.061 1.143-1.592 2.65-1.592.409 0 .785.041 1.128.122.343.082.614.21.814.382.2.173.333.356.402.549.068.192.102.564.102 1.113v2.027c0 .386.052.716.155.988zm-2.066-2.375c-.849.09-1.273.361-1.273.813 0 .307.168.459.504.459.213 0 .394-.063.544-.19s.225-.406.225-.838v-.244zM25.255 37.813h-1.123v-6.813h1.961v2.341c.274-.472.707-.709 1.303-.709.42 0 .776.11 1.068.33.293.219.511.533.654.94.144.408.215.836.215 1.286 0 .818-.184 1.479-.55 1.979-.366.501-.911.751-1.637.751-.716 0-1.259-.268-1.631-.803-.107.199-.195.432-.26.698zm.838-1.892c0 .5.194.749.579.749.21 0 .371-.091.481-.272.112-.181.168-.554.168-1.12 0-.616-.064-1.002-.189-1.16-.126-.159-.284-.237-.47-.237-.146 0-.277.057-.395.169-.116.113-.175.277-.175.494v1.377zM35.242 37.813h-1.896c-.047-.217-.07-.452-.07-.709-.359.542-.903.813-1.632.813-.599 0-1.047-.152-1.346-.459-.298-.307-.446-.657-.446-1.053 0-.536.244-.969.731-1.3.487-.332 1.352-.53 2.593-.597v-.115c0-.222-.051-.371-.152-.444-.102-.073-.25-.11-.446-.11-.459 0-.716.185-.769.554l-1.817-.169c.26-1.061 1.144-1.592 2.65-1.592.409 0 .785.041 1.128.122.344.082.614.21.813.382.2.173.334.356.402.549.068.192.103.564.103 1.113v2.027c0 .386.052.716.154.988zm-2.066-2.375c-.849.09-1.272.361-1.272.813 0 .307.168.459.504.459.213 0 .395-.063.544-.19s.225-.406.225-.838v-.244zM41.077 37.813h-1.991v-3.195c0-.262-.041-.431-.123-.504-.081-.073-.184-.11-.307-.11-.362 0-.544.252-.544.759v3.05h-1.991v-5.076h1.847v.719c.272-.549.76-.824 1.462-.824.37 0 .681.071.937.211.254.142.437.326.546.549.11.226.165.615.165 1.171v3.25zM47.371 32.737l-1.534 1.744 1.709 3.333h-2.059l-.952-2.033-.543.635v1.398h-1.867v-6.814h1.867v2.75l-.015.918c.119-.17.241-.325.364-.464l1.273-1.467h1.757z"
      />
    </g>
</svg>