<svg xmlns="http://www.w3.org/2000/svg" width="50" height="50" viewBox="0 0 50 50"><path fill="#eee" d="M0 0h50v50h-50z"/><g fill="#AFAFAF"><path d="M33.866 27.282h-16.061c-4.905 0-8.896 3.991-8.896 8.897v8.821h2v-8.82c0-3.804 3.094-6.897 6.896-6.897h16.061c3.802 0 6.896 3.094 6.896 6.897v8.82h2v-8.82c0-4.907-3.991-8.898-8.896-8.898zM25.979 21.745c3.249 0 5.893-2.644 5.893-5.893v-2.846c0-3.251-2.644-5.896-5.893-5.896-3.25 0-5.895 2.645-5.895 5.896v2.846c0 3.25 2.644 5.893 5.895 5.893zm-3.895-8.739c0-2.148 1.747-3.896 3.895-3.896 2.146 0 3.893 1.748 3.893 3.896v2.846c0 2.146-1.746 3.893-3.893 3.893s-3.895-1.747-3.895-3.893v-2.846zM32.252 37.891h2v7.109h-2zM17.7 37.891h2v7.109h-2z"/></g></svg>